<?xml version="1.0" encoding="utf-8"?>
<!-- Generator: Adobe Illustrator 18.1.1, SVG Export Plug-In . SVG Version: 6.00 Build 0)  -->
<svg version="1.1" id="レイヤー_1" xmlns="http://www.w3.org/2000/svg" xmlns:xlink="http://www.w3.org/1999/xlink" x="0px"
	 y="0px" viewBox="0 0 725.7 515.9" enable-background="new 0 0 725.7 515.9" xml:space="preserve">
<g>
	<g>
		<g>
			<path fill="#898989" d="M257.9,232.3V222h37.3v10.3h-12.9v67.8h-11.6v-67.8H257.9z"/>
			<path fill="#898989" d="M293.6,300.2V300l15.2-78H321l15,78v0.2h-11.5l-2.4-14.8h-14.6l-2.4,14.8H293.6z M309,275.3h11.4
				l-5.8-35.3L309,275.3z"/>
			<path fill="#898989" d="M342.8,300.2V222h11.6v33l13-33h12.8v0.5l-15.9,37.1l17.8,40v0.5h-12.9l-14.8-34.8v34.8H342.8z"/>
			<path fill="#898989" d="M388.2,300.2V222h32.2v10.3h-20.4v22.8h17.5v10.1h-17.6v24.5h20.7v10.3h-32.4V300.2z"/>
			<path fill="#898989" d="M426.3,222.4V222h12.1l9.3,33.9l9.3-33.9h12v0.4l-15.5,49v28.8h-11.8v-28.8L426.3,222.4z"/>
			<path fill="#898989" d="M475.5,222h11.6v68h15.8v-68h11.6v71c0,4.6-2.6,7.1-7.1,7.1h-24.8c-4.6,0-7-2.6-7-7.1v-71H475.5z"/>
			<path fill="#898989" d="M521.4,222h11.9l6.1,46.3c0.1,1.8,0.1,3.8,0.4,7.1c0.3-3.4,0.3-5.5,0.4-7.1l6.7-46.3h9.6l6.7,46.3
				c0.3,2,0.3,3.8,0.4,7.1c0.3-3.4,0.3-5.3,0.4-7.1L570,222h11.9l-11.4,78.2H559l-6.9-44.3c-0.4-1.6-0.3-3.8-0.4-7.1
				c-0.3,3.4-0.1,5.6-0.4,7.1l-6.9,44.3h-11.4L521.4,222z"/>
			<path fill="#898989" d="M588.8,300.2V222h32.2v10.3h-20.4v22.8h17.6v10.1h-17.6v24.5h20.7v10.3h-32.5V300.2z"/>
			<path fill="#898989" d="M628.7,300.2V222h31c4.5,0,6.9,2.6,6.9,7.1v20.1c0,3.7-1,5.5-3.8,7l-4.8,3l5.2,3.2
				c2.8,1.8,3.9,3.6,3.9,7.2v23.2c0,4.6-2.6,7.1-7.1,7.1h-31.2V300.2z M640.3,254.7h9l5.7-4v-18.9h-14.6V254.7z M640.3,290.3h14.9
				V268l-5.8-3.8h-9.2V290.3z"/>
		</g>
	</g>
	<g>
		<path fill="#7CBE35" d="M230.9,248.9l-75.2-75.2c-2.4-2.4-5.7-3.7-9.1-3.7s-6.6,1.3-9.1,3.7l-14.2,14.2v13l20.7-20.7
			c0.7-0.6,1.5-1,2.6-1c1,0,1.9,0.4,2.6,1l75.2,75.2c0.7,0.6,1,1.5,1,2.6c0,0.9-0.4,1.9-1,2.6l-43.9,43.9v-56.2h12.9v-10.2h-32.5
			v-41.2h-10.2v91.4h10.2v-40.1h9.4v66.4l-0.2,0.2v13l60.8-60.8c2.4-2.4,3.7-5.7,3.7-9.1S233.3,251.3,230.9,248.9z"/>
		<path fill="#898989" d="M149.2,335.6c-0.6,0.6-1.5,1-2.6,1c-1,0-1.9-0.4-2.6-1l-75.2-75.2c-0.6-0.7-1-1.5-1-2.6
			c0-0.9,0.4-1.9,1-2.6l36.1-36.1v69H115V248h9.4v65.1h10.2V248h11.4v-10.2h-31v-28.9v-0.7v-12.2l-52.8,52.8
			c-2.4,2.4-3.7,5.7-3.7,9.1s1.3,6.6,3.7,9.1l75.2,75.2c2.4,2.4,5.7,3.7,9.1,3.7s6.6-1.3,9.1-3.7l6.2-6.2v-13L149.2,335.6z"/>
	</g>
</g>
</svg>
