<?xml version="1.0" encoding="utf-8"?>
<!-- Generator: Adobe Illustrator 18.1.1, SVG Export Plug-In . SVG Version: 6.00 Build 0)  -->
<svg version="1.1" id="レイヤー_1" xmlns="http://www.w3.org/2000/svg" xmlns:xlink="http://www.w3.org/1999/xlink" x="0px"
	 y="0px" viewBox="0 0 725.7 515.9" enable-background="new 0 0 725.7 515.9" xml:space="preserve">
<g>
	<g>
		<g>
			<path fill="#898989" d="M180.7,408.9v-9.2H214v9.2h-11.5v60.4h-10.4v-60.4H180.7z"/>
			<path fill="#898989" d="M212.5,469.1v-0.2l13.5-69.4h10.9l13.4,69.4v0.2H240l-2.1-13.2h-13l-2.1,13.2L212.5,469.1L212.5,469.1z
				 M226.2,447h10.2l-5.1-31.4L226.2,447z"/>
			<path fill="#898989" d="M256.3,469.1v-69.5h10.4v29.4l11.6-29.4h11.4v0.5l-14.1,33l15.9,35.6v0.5h-11.5l-13.2-31v31L256.3,469.1
				L256.3,469.1z"/>
			<path fill="#898989" d="M296.7,469.1v-69.5h28.6v9.2h-18.2V429h15.7v9h-15.7v21.8h18.4v9.2L296.7,469.1L296.7,469.1z"/>
			<path fill="#898989" d="M330.6,400v-0.4h10.7l8.3,30.2l8.3-30.2h10.6v0.4l-13.8,43.6v25.6h-10.5v-25.6L330.6,400z"/>
			<path fill="#898989" d="M374.4,399.7h10.4v60.6h14v-60.6h10.4v63.2c0,4.1-2.3,6.3-6.3,6.3h-22.1c-4.1,0-6.2-2.3-6.2-6.3
				L374.4,399.7L374.4,399.7z"/>
			<path fill="#898989" d="M415.3,399.7h10.5l5.4,41.2c0.1,1.6,0.1,3.4,0.4,6.3c0.3-3,0.3-4.9,0.4-6.3l6-41.2h8.5l6,41.2
				c0.3,1.7,0.3,3.4,0.4,6.3c0.3-3,0.3-4.7,0.4-6.3l5.4-41.2h10.5L459,469.2h-10.2l-6.1-39.4c-0.4-1.5-0.3-3.4-0.4-6.3
				c-0.3,3-0.1,5-0.4,6.3l-6.1,39.4h-10.2L415.3,399.7z"/>
			<path fill="#898989" d="M475.3,469.1v-69.5h28.6v9.2h-18.2V429h15.7v9h-15.7v21.8h18.4v9.2L475.3,469.1L475.3,469.1z"/>
			<path fill="#898989" d="M510.7,469.1v-69.5h27.6c4,0,6.1,2.3,6.1,6.3v17.9c0,3.3-0.9,4.9-3.4,6.2l-4.3,2.7l4.6,2.8
				c2.5,1.6,3.5,3.2,3.5,6.4v20.6c0,4.1-2.3,6.3-6.3,6.3h-27.8V469.1z M521.1,428.8h8l5-3.6v-16.9h-13V428.8z M521.1,460.4h13.3
				v-19.8l-5.1-3.4h-8.2V460.4z"/>
		</g>
	</g>
	<g>
		<path fill="#7CBE35" d="M514.2,187.1L380.4,53.3c-4.3-4.3-10-6.6-16.1-6.6c-6.1,0-11.8,2.4-16.1,6.6l-25.3,25.3v23.2l36.9-36.9
			c1.2-1.2,2.8-1.8,4.5-1.8c1.7,0,3.3,0.6,4.5,1.8l133.8,133.8c1.2,1.2,1.8,2.8,1.8,4.5s-0.6,3.3-1.8,4.5l-78.1,78.1v-100h22.8
			v-18.2h-57.8V94.6h-18.2v162.6h18.2v-71.4h16.7V304l-0.4,0.4v23.1l108.2-108.2c4.3-4.3,6.6-10,6.6-16.1
			C520.8,197.1,518.4,191.4,514.2,187.1z"/>
		<path fill="#898989" d="M368.7,341.5c-1.2,1.2-2.8,1.8-4.5,1.8c-1.7,0-3.3-0.6-4.5-1.8L225.9,207.7c-1.2-1.2-1.8-2.8-1.8-4.5
			s0.6-3.3,1.8-4.5l64.2-64.2v122.7h18.2v-71.4h16.7v116h18.2v-116h20.4v-18.2h-55.2v-51.4v-1.4V93.1l-93.9,94
			c-4.3,4.3-6.6,10-6.6,16.1c0,6.1,2.4,11.8,6.6,16.1l133.8,133.9c4.3,4.3,10,6.6,16.1,6.6s11.8-2.4,16.1-6.6l11.1-11.1v-23.2
			L368.7,341.5z"/>
	</g>
</g>
</svg>
